# xmcd CD database file
#
# Track frame offsets:
#	150
#	18600
#	30725
#	48462
#	60762
#	92412
#	108850
#	121175
#	134300
#	145500
#	164450
#	181975
#	197075
#	206662
#	221150
#	230462
#	250287
#	261250
#	273475
#	285005
#
# Disc length: 4211 seconds
#
# Revision: 0
# Processed by: cddbd v1.5.2PL0 Copyright (c) Steve Scherf et al.
# Submitted via: CDex 1.70beta2
#
DISCID=19107114
DTITLE=Tottas Bluesband - Compilation Boogie-rare pre-release
DYEAR=1988
DGENRE=Blues
TTITLE0=We'll Play The Blues For You
TTITLE1=Combination Boogie
TTITLE2=Bad Bad Whiskey
TTITLE3=Too Late
TTITLE4=I'm Going Down
TTITLE5=See That My Grave Is Kept Clean
TTITLE6=I'm A Lover, Not A Fighter
TTITLE7=Person To Person
TTITLE8=I Live The Life I Love
TTITLE9=No Expectations
TTITLE10=Goin' Back To Memphis
TTITLE11=Last Time
TTITLE12=Blues Is Here To Stay
TTITLE13=The World's In A Tangle
TTITLE14=Saturday Night's Boogie Woogie Man
TTITLE15=Bring It On Home
TTITLE16=Just Like I Treat You
TTITLE17=Ain't Your Business
TTITLE18=Just Your Fool
TTITLE19=Double Trouble
EXTD=YEAR: 1988
EXTT0=
EXTT1=
EXTT2=
EXTT3=
EXTT4=
EXTT5=
EXTT6=
EXTT7=
EXTT8=
EXTT9=
EXTT10=
EXTT11=
EXTT12=
EXTT13=
EXTT14=
EXTT15=
EXTT16=
EXTT17=
EXTT18=
EXTT19=
PLAYORDER=
